<svg xmlns="http://www.w3.org/2000/svg" xmlns:xlink="http://www.w3.org/1999/xlink" width="300" zoomAndPan="magnify" viewBox="0 0 224.87999 225" height="300" preserveAspectRatio="xMidYMid meet" version="1.0"><defs><g/><clipPath id="951beca0b8"><path d="M 2.167969 97.417969 L 66.835938 97.417969 L 66.835938 198 L 2.167969 198 Z M 2.167969 97.417969 " clip-rule="nonzero"/></clipPath><clipPath id="72683de3d9"><path d="M 27.171875 97.417969 L 27.171875 102.457031 C 28.59375 102.558594 28.558594 102.800781 30.761719 103.203125 C 32.964844 103.605469 32.953125 104.1875 34.421875 104.945312 C 36.128906 105.796875 37.253906 106.78125 37.792969 107.894531 C 38.335938 109.007812 38.609375 110.394531 38.609375 112.046875 L 38.609375 165.382812 C 38.609375 169.832031 38.382812 173.859375 37.933594 177.453125 C 37.484375 181.046875 36.738281 184.082031 35.695312 186.542969 C 34.605469 189.191406 32.074219 192.128906 29.222656 193.292969 C 26.714844 194.320312 21.347656 194.179688 19.785156 193.550781 C 18.226562 192.921875 18.339844 189.863281 18.808594 189.285156 C 19.441406 188.480469 20.824219 183.933594 20.371094 181.628906 C 18.964844 174.441406 12.738281 173.566406 10.347656 173.566406 C 7.679688 173.566406 5.648438 174.414062 4.25 176.109375 C 2.851562 177.804688 2.167969 179.75 2.167969 181.9375 C 2.167969 186.9375 3.636719 190.636719 7.6875 193.585938 C 11.734375 196.53125 16.945312 197.726562 23.660156 197.882812 C 30.378906 198.042969 35.339844 196.65625 37.484375 195.886719 C 39.671875 195.105469 44.113281 193.679688 47.300781 190.839844 C 50.121094 188.335938 53.261719 184.503906 54.515625 181 C 55.765625 177.5 56.394531 174.183594 56.394531 171.058594 L 56.394531 111.335938 C 56.394531 109.777344 56.679688 108.332031 57.246094 107.003906 C 57.8125 105.675781 58.902344 104.730469 60.515625 104.160156 C 61.890625 103.6875 61.714844 103.296875 63.679688 102.988281 C 65.640625 102.679688 65.441406 102.503906 66.769531 102.453125 L 66.769531 97.417969 Z M 27.171875 97.417969 " clip-rule="nonzero"/></clipPath><clipPath id="20f1715d31"><path d="M 127.144531 63.171875 L 214.53125 63.171875 L 214.53125 80 L 127.144531 80 Z M 127.144531 63.171875 " clip-rule="nonzero"/></clipPath><clipPath id="ff69b85bf2"><path d="M 127.332031 79.742188 L 214.507812 79.742188 C 214.507812 79.742188 185.132812 63.316406 162.707031 63.316406 C 140.277344 63.316406 127.332031 79.742188 127.332031 79.742188 " clip-rule="nonzero"/></clipPath><clipPath id="9335947807"><path d="M 27.523438 63 L 118.988281 63 L 118.988281 80.066406 L 27.523438 80.066406 Z M 27.523438 63 " clip-rule="nonzero"/></clipPath><clipPath id="bb159e8fea"><path d="M 118.488281 80.0625 L 27.523438 80.0625 C 27.523438 80.0625 59.113281 62.058594 81.851562 63.324219 C 104.585938 64.589844 118.488281 80.0625 118.488281 80.0625 " clip-rule="nonzero"/></clipPath><clipPath id="1070b02141"><path d="M 117 8.992188 L 158 8.992188 L 158 78 L 117 78 Z M 117 8.992188 " clip-rule="nonzero"/></clipPath><clipPath id="2f6b4cd416"><path d="M 125.125 77.847656 C 125.125 77.847656 138.390625 34.574219 157.976562 8.992188 C 139.972656 18.785156 123.542969 31.417969 118.492188 48.160156 C 113.496094 64.710938 125.128906 77.847656 125.128906 77.847656 " clip-rule="nonzero"/></clipPath><clipPath id="38223ed2fd"><path d="M 74.613281 97.351562 L 136.949219 97.351562 L 136.949219 163.765625 L 74.613281 163.765625 Z M 74.613281 97.351562 " clip-rule="nonzero"/></clipPath><clipPath id="d21c3e454c"><path d="M 136.234375 97.351562 L 136.699219 115.417969 L 129.964844 115.417969 C 129.03125 109.238281 127.253906 107.222656 126.386719 106.121094 C 125.519531 105.019531 124.703125 103.015625 112.488281 103.015625 C 108.636719 103.015625 104.664062 102.746094 103.40625 103.746094 C 102.148438 104.742188 101.515625 107.546875 101.515625 112.179688 L 101.515625 127.367188 L 105.246094 127.367188 C 109.285156 127.367188 112.3125 126.347656 114.335938 124.316406 C 116.355469 122.28125 117.492188 119.117188 117.738281 114.832031 L 123.1875 114.832031 L 123.1875 145.589844 L 117.738281 145.542969 C 117.457031 141.003906 116.296875 137.648438 114.265625 135.476562 C 112.230469 133.304688 109.226562 132.214844 105.246094 132.214844 L 101.515625 132.214844 L 101.515625 151.324219 C 101.515625 155.425781 101.953125 155.507812 102.824219 156.578125 C 103.691406 157.648438 105.320312 158.261719 107.714844 158.417969 L 110.464844 158.652344 L 110.464844 163.59375 L 74.613281 163.59375 L 74.613281 158.652344 L 77.503906 158.417969 C 79.835938 158.261719 81.425781 157.667969 82.28125 156.625 C 83.136719 155.582031 83.5625 155.488281 83.5625 151.324219 L 83.5625 112.175781 C 83.5625 107.980469 83.136719 105.363281 82.28125 104.320312 C 81.425781 103.277344 79.816406 102.683594 77.457031 102.527344 L 74.613281 102.339844 L 74.613281 97.351562 Z M 136.234375 97.351562 " clip-rule="nonzero"/></clipPath><clipPath id="f52319d670"><path d="M 141.609375 97.351562 L 222 97.351562 L 222 163.765625 L 141.609375 163.765625 Z M 141.609375 97.351562 " clip-rule="nonzero"/></clipPath><clipPath id="8f34873ab7"><path d="M 176.898438 97.351562 L 176.898438 102.339844 C 173.570312 102.527344 171.390625 103.113281 170.347656 104.109375 C 169.304688 105.105469 168.789062 107.792969 168.789062 112.175781 L 168.789062 130.304688 L 186.453125 114.457031 C 188.007812 113.058594 189.183594 111.730469 189.992188 110.472656 C 190.804688 109.214844 191.207031 108.089844 191.207031 107.09375 C 191.207031 105.851562 190.746094 104.878906 189.832031 104.179688 C 188.914062 103.480469 187.214844 102.871094 184.726562 102.339844 L 184.726562 97.351562 L 217.070312 97.351562 L 217.070312 102.339844 C 214.089844 102.554688 211.160156 103.253906 208.285156 104.4375 C 205.414062 105.621094 202.875 107.167969 200.667969 109.097656 L 188.175781 120.097656 L 210.21875 151.007812 C 212.019531 153.804688 213.761719 155.78125 215.441406 156.925781 C 217.117188 158.074219 219.027344 158.652344 221.171875 158.652344 L 221.964844 158.652344 L 221.964844 163.59375 L 186.265625 163.59375 L 186.265625 158.652344 C 188.59375 158.589844 190.300781 158.296875 191.390625 157.765625 C 192.480469 157.238281 193.023438 156.445312 193.023438 155.390625 C 193.023438 154.921875 192.929688 154.453125 192.742188 153.96875 C 192.558594 153.484375 192.136719 152.75 191.484375 151.753906 L 176.429688 130.769531 L 168.789062 137.488281 L 168.789062 151.328125 C 168.789062 155.679688 169.339844 155.886719 170.441406 156.957031 C 171.542969 158.027344 173.699219 158.59375 176.898438 158.65625 L 176.898438 163.597656 L 141.882812 163.597656 L 141.882812 158.519531 L 144.632812 158.519531 C 146.933594 158.519531 148.542969 157.929688 149.457031 156.746094 C 150.371094 155.5625 150.832031 155.429688 150.832031 151.328125 L 150.832031 112.175781 C 150.832031 108.074219 150.34375 105.410156 149.363281 104.179688 C 148.386719 102.953125 146.683594 102.339844 144.261719 102.339844 L 141.882812 102.339844 L 141.882812 97.351562 Z M 176.898438 97.351562 " clip-rule="nonzero"/></clipPath></defs><g clip-path="url(#951beca0b8)"><g clip-path="url(#72683de3d9)"><path fill="#000000" d="M 2.167969 97.417969 L 66.835938 97.417969 L 66.835938 198.203125 L 2.167969 198.203125 Z M 2.167969 97.417969 " fill-opacity="1" fill-rule="nonzero"/></g></g><g clip-path="url(#20f1715d31)"><g clip-path="url(#ff69b85bf2)"><path fill="#000000" d="M 24.613281 6.078125 L 217.445312 6.078125 L 217.445312 82.980469 L 24.613281 82.980469 Z M 24.613281 6.078125 " fill-opacity="1" fill-rule="nonzero"/></g></g><g clip-path="url(#9335947807)"><g clip-path="url(#bb159e8fea)"><path fill="#000000" d="M 24.613281 6.078125 L 217.445312 6.078125 L 217.445312 82.980469 L 24.613281 82.980469 Z M 24.613281 6.078125 " fill-opacity="1" fill-rule="nonzero"/></g></g><g clip-path="url(#1070b02141)"><g clip-path="url(#2f6b4cd416)"><path fill="#000000" d="M 24.613281 6.078125 L 217.445312 6.078125 L 217.445312 82.980469 L 24.613281 82.980469 Z M 24.613281 6.078125 " fill-opacity="1" fill-rule="nonzero"/></g></g><g clip-path="url(#38223ed2fd)"><g clip-path="url(#d21c3e454c)"><path fill="#000000" d="M 71.703125 94.441406 L 224.917969 94.441406 L 224.917969 166.679688 L 71.703125 166.679688 Z M 71.703125 94.441406 " fill-opacity="1" fill-rule="nonzero"/></g></g><g clip-path="url(#f52319d670)"><g clip-path="url(#8f34873ab7)"><path fill="#000000" d="M 71.703125 94.441406 L 224.917969 94.441406 L 224.917969 166.679688 L 71.703125 166.679688 Z M 71.703125 94.441406 " fill-opacity="1" fill-rule="nonzero"/></g></g><g fill="#000000" fill-opacity="1"><g transform="translate(76.136424, 181.921573)"><g><path d="M 4.8125 0 C 3.882812 0 3.222656 -0.273438 2.828125 -0.828125 C 2.441406 -1.390625 2.25 -2.160156 2.25 -3.140625 L 2.25 -8.6875 L 0.796875 -8.6875 C 0.660156 -8.6875 0.554688 -8.722656 0.484375 -8.796875 C 0.410156 -8.867188 0.375 -8.96875 0.375 -9.09375 L 0.375 -9.359375 C 0.375 -9.484375 0.410156 -9.582031 0.484375 -9.65625 C 0.554688 -9.738281 0.660156 -9.78125 0.796875 -9.78125 L 2.25 -9.78125 L 2.25 -12.9375 C 2.25 -13.0625 2.285156 -13.160156 2.359375 -13.234375 C 2.441406 -13.304688 2.546875 -13.34375 2.671875 -13.34375 L 2.984375 -13.34375 C 3.109375 -13.34375 3.207031 -13.304688 3.28125 -13.234375 C 3.363281 -13.160156 3.40625 -13.0625 3.40625 -12.9375 L 3.40625 -9.78125 L 5.734375 -9.78125 C 5.859375 -9.78125 5.957031 -9.738281 6.03125 -9.65625 C 6.101562 -9.582031 6.140625 -9.484375 6.140625 -9.359375 L 6.140625 -9.09375 C 6.140625 -8.96875 6.101562 -8.867188 6.03125 -8.796875 C 5.957031 -8.722656 5.859375 -8.6875 5.734375 -8.6875 L 3.40625 -8.6875 L 3.40625 -3.21875 C 3.40625 -2.507812 3.519531 -1.976562 3.75 -1.625 C 3.976562 -1.269531 4.363281 -1.09375 4.90625 -1.09375 L 5.921875 -1.09375 C 6.046875 -1.09375 6.144531 -1.050781 6.21875 -0.96875 C 6.289062 -0.894531 6.328125 -0.796875 6.328125 -0.671875 L 6.328125 -0.40625 C 6.328125 -0.28125 6.289062 -0.179688 6.21875 -0.109375 C 6.144531 -0.0351562 6.046875 0 5.921875 0 Z M 4.8125 0 "/></g></g></g><g fill="#000000" fill-opacity="1"><g transform="translate(85.026433, 181.921573)"><g><path d="M 1.9375 0 C 1.8125 0 1.707031 -0.0351562 1.625 -0.109375 C 1.550781 -0.179688 1.515625 -0.28125 1.515625 -0.40625 L 1.515625 -9.34375 C 1.515625 -9.46875 1.550781 -9.570312 1.625 -9.65625 C 1.707031 -9.738281 1.8125 -9.78125 1.9375 -9.78125 L 2.234375 -9.78125 C 2.359375 -9.78125 2.460938 -9.738281 2.546875 -9.65625 C 2.628906 -9.570312 2.671875 -9.46875 2.671875 -9.34375 L 2.671875 -8.484375 C 3.117188 -9.347656 3.96875 -9.78125 5.21875 -9.78125 L 5.921875 -9.78125 C 6.046875 -9.78125 6.144531 -9.738281 6.21875 -9.65625 C 6.289062 -9.582031 6.328125 -9.484375 6.328125 -9.359375 L 6.328125 -9.09375 C 6.328125 -8.96875 6.289062 -8.867188 6.21875 -8.796875 C 6.144531 -8.722656 6.046875 -8.6875 5.921875 -8.6875 L 5.109375 -8.6875 C 4.359375 -8.6875 3.765625 -8.46875 3.328125 -8.03125 C 2.890625 -7.59375 2.671875 -6.992188 2.671875 -6.234375 L 2.671875 -0.40625 C 2.671875 -0.28125 2.628906 -0.179688 2.546875 -0.109375 C 2.460938 -0.0351562 2.359375 0 2.234375 0 Z M 1.9375 0 "/></g></g></g><g fill="#000000" fill-opacity="1"><g transform="translate(93.709704, 181.921573)"><g><path d="M 4.15625 0.1875 C 3.550781 0.1875 2.988281 0.0625 2.46875 -0.1875 C 1.957031 -0.4375 1.550781 -0.773438 1.25 -1.203125 C 0.945312 -1.628906 0.796875 -2.097656 0.796875 -2.609375 C 0.796875 -3.441406 1.128906 -4.117188 1.796875 -4.640625 C 2.460938 -5.171875 3.367188 -5.507812 4.515625 -5.65625 L 7.484375 -6.078125 L 7.484375 -6.734375 C 7.484375 -7.421875 7.269531 -7.945312 6.84375 -8.3125 C 6.425781 -8.6875 5.785156 -8.875 4.921875 -8.875 C 4.285156 -8.875 3.765625 -8.75 3.359375 -8.5 C 2.953125 -8.25 2.691406 -7.945312 2.578125 -7.59375 C 2.523438 -7.445312 2.460938 -7.34375 2.390625 -7.28125 C 2.328125 -7.226562 2.238281 -7.203125 2.125 -7.203125 L 1.859375 -7.203125 C 1.742188 -7.203125 1.644531 -7.238281 1.5625 -7.3125 C 1.488281 -7.394531 1.453125 -7.492188 1.453125 -7.609375 C 1.453125 -7.890625 1.578125 -8.210938 1.828125 -8.578125 C 2.078125 -8.953125 2.460938 -9.273438 2.984375 -9.546875 C 3.515625 -9.828125 4.160156 -9.96875 4.921875 -9.96875 C 6.265625 -9.96875 7.21875 -9.644531 7.78125 -9 C 8.34375 -8.363281 8.625 -7.585938 8.625 -6.671875 L 8.625 -0.40625 C 8.625 -0.28125 8.585938 -0.179688 8.515625 -0.109375 C 8.441406 -0.0351562 8.34375 0 8.21875 0 L 7.890625 0 C 7.765625 0 7.664062 -0.0351562 7.59375 -0.109375 C 7.519531 -0.179688 7.484375 -0.28125 7.484375 -0.40625 L 7.484375 -1.296875 C 7.203125 -0.878906 6.796875 -0.523438 6.265625 -0.234375 C 5.734375 0.046875 5.03125 0.1875 4.15625 0.1875 Z M 4.34375 -0.90625 C 5.257812 -0.90625 6.007812 -1.203125 6.59375 -1.796875 C 7.1875 -2.398438 7.484375 -3.269531 7.484375 -4.40625 L 7.484375 -5.03125 L 5.0625 -4.703125 C 4.03125 -4.566406 3.25 -4.328125 2.71875 -3.984375 C 2.195312 -3.648438 1.9375 -3.222656 1.9375 -2.703125 C 1.9375 -2.128906 2.175781 -1.6875 2.65625 -1.375 C 3.144531 -1.0625 3.707031 -0.90625 4.34375 -0.90625 Z M 4.34375 -0.90625 "/></g></g></g><g fill="#000000" fill-opacity="1"><g transform="translate(105.926348, 181.921573)"><g><path d="M 5.0625 0.1875 C 3.707031 0.1875 2.707031 -0.253906 2.0625 -1.140625 C 1.414062 -2.023438 1.070312 -3.097656 1.03125 -4.359375 L 1.015625 -4.890625 L 1.03125 -5.40625 C 1.070312 -6.675781 1.414062 -7.753906 2.0625 -8.640625 C 2.707031 -9.523438 3.707031 -9.96875 5.0625 -9.96875 C 6.425781 -9.96875 7.476562 -9.472656 8.21875 -8.484375 L 8.21875 -12.9375 C 8.21875 -13.0625 8.253906 -13.160156 8.328125 -13.234375 C 8.398438 -13.304688 8.5 -13.34375 8.625 -13.34375 L 8.953125 -13.34375 C 9.078125 -13.34375 9.175781 -13.304688 9.25 -13.234375 C 9.320312 -13.160156 9.359375 -13.0625 9.359375 -12.9375 L 9.359375 -0.40625 C 9.359375 -0.28125 9.320312 -0.179688 9.25 -0.109375 C 9.175781 -0.0351562 9.078125 0 8.953125 0 L 8.625 0 C 8.5 0 8.398438 -0.0351562 8.328125 -0.109375 C 8.253906 -0.179688 8.21875 -0.28125 8.21875 -0.40625 L 8.21875 -1.296875 C 7.488281 -0.304688 6.4375 0.1875 5.0625 0.1875 Z M 5.171875 -0.90625 C 6.160156 -0.90625 6.90625 -1.234375 7.40625 -1.890625 C 7.90625 -2.546875 8.175781 -3.316406 8.21875 -4.203125 C 8.226562 -4.335938 8.234375 -4.582031 8.234375 -4.9375 C 8.234375 -5.300781 8.226562 -5.546875 8.21875 -5.671875 C 8.207031 -6.210938 8.085938 -6.722656 7.859375 -7.203125 C 7.628906 -7.691406 7.289062 -8.09375 6.84375 -8.40625 C 6.394531 -8.71875 5.835938 -8.875 5.171875 -8.875 C 4.148438 -8.875 3.40625 -8.550781 2.9375 -7.90625 C 2.46875 -7.257812 2.21875 -6.425781 2.1875 -5.40625 L 2.15625 -4.890625 C 2.15625 -3.722656 2.378906 -2.765625 2.828125 -2.015625 C 3.285156 -1.273438 4.066406 -0.90625 5.171875 -0.90625 Z M 5.171875 -0.90625 "/></g></g></g><g fill="#000000" fill-opacity="1"><g transform="translate(118.969954, 181.921573)"><g><path d="M 1.734375 -11.78125 C 1.609375 -11.78125 1.503906 -11.816406 1.421875 -11.890625 C 1.347656 -11.972656 1.3125 -12.078125 1.3125 -12.203125 L 1.3125 -12.90625 C 1.3125 -13.03125 1.347656 -13.132812 1.421875 -13.21875 C 1.503906 -13.300781 1.609375 -13.34375 1.734375 -13.34375 L 2.4375 -13.34375 C 2.5625 -13.34375 2.664062 -13.300781 2.75 -13.21875 C 2.832031 -13.132812 2.875 -13.03125 2.875 -12.90625 L 2.875 -12.203125 C 2.875 -12.078125 2.832031 -11.972656 2.75 -11.890625 C 2.664062 -11.816406 2.5625 -11.78125 2.4375 -11.78125 Z M 1.9375 0 C 1.8125 0 1.707031 -0.0351562 1.625 -0.109375 C 1.550781 -0.179688 1.515625 -0.28125 1.515625 -0.40625 L 1.515625 -9.359375 C 1.515625 -9.484375 1.550781 -9.582031 1.625 -9.65625 C 1.707031 -9.738281 1.8125 -9.78125 1.9375 -9.78125 L 2.25 -9.78125 C 2.375 -9.78125 2.472656 -9.738281 2.546875 -9.65625 C 2.628906 -9.582031 2.671875 -9.484375 2.671875 -9.359375 L 2.671875 -0.40625 C 2.671875 -0.28125 2.628906 -0.179688 2.546875 -0.109375 C 2.472656 -0.0351562 2.375 0 2.25 0 Z M 1.9375 0 "/></g></g></g><g fill="#000000" fill-opacity="1"><g transform="translate(125.303906, 181.921573)"><g><path d="M 1.9375 0 C 1.8125 0 1.707031 -0.0351562 1.625 -0.109375 C 1.550781 -0.179688 1.515625 -0.28125 1.515625 -0.40625 L 1.515625 -9.359375 C 1.515625 -9.484375 1.550781 -9.582031 1.625 -9.65625 C 1.707031 -9.738281 1.8125 -9.78125 1.9375 -9.78125 L 2.25 -9.78125 C 2.375 -9.78125 2.472656 -9.738281 2.546875 -9.65625 C 2.628906 -9.582031 2.671875 -9.484375 2.671875 -9.359375 L 2.671875 -8.484375 C 3.046875 -8.960938 3.472656 -9.328125 3.953125 -9.578125 C 4.441406 -9.835938 5.066406 -9.96875 5.828125 -9.96875 C 7.054688 -9.96875 8 -9.570312 8.65625 -8.78125 C 9.320312 -8 9.65625 -6.988281 9.65625 -5.75 L 9.65625 -0.40625 C 9.65625 -0.28125 9.617188 -0.179688 9.546875 -0.109375 C 9.472656 -0.0351562 9.375 0 9.25 0 L 8.921875 0 C 8.796875 0 8.695312 -0.0351562 8.625 -0.109375 C 8.550781 -0.179688 8.515625 -0.28125 8.515625 -0.40625 L 8.515625 -5.65625 C 8.515625 -6.675781 8.265625 -7.46875 7.765625 -8.03125 C 7.273438 -8.59375 6.566406 -8.875 5.640625 -8.875 C 4.734375 -8.875 4.007812 -8.585938 3.46875 -8.015625 C 2.9375 -7.441406 2.671875 -6.65625 2.671875 -5.65625 L 2.671875 -0.40625 C 2.671875 -0.28125 2.628906 -0.179688 2.546875 -0.109375 C 2.472656 -0.0351562 2.375 0 2.25 0 Z M 1.9375 0 "/></g></g></g><g fill="#000000" fill-opacity="1"><g transform="translate(138.535463, 181.921573)"><g><path d="M 5.171875 4.140625 C 4.191406 4.140625 3.40625 3.96875 2.8125 3.625 C 2.226562 3.289062 1.816406 2.90625 1.578125 2.46875 C 1.347656 2.039062 1.234375 1.660156 1.234375 1.328125 C 1.234375 1.222656 1.273438 1.128906 1.359375 1.046875 C 1.441406 0.972656 1.539062 0.9375 1.65625 0.9375 L 1.921875 0.9375 C 2.035156 0.9375 2.125 0.960938 2.1875 1.015625 C 2.257812 1.078125 2.320312 1.179688 2.375 1.328125 C 2.757812 2.472656 3.660156 3.046875 5.078125 3.046875 C 6.148438 3.046875 6.941406 2.820312 7.453125 2.375 C 7.972656 1.925781 8.234375 1.132812 8.234375 0 L 8.234375 -1.296875 C 7.503906 -0.304688 6.453125 0.1875 5.078125 0.1875 C 3.722656 0.1875 2.722656 -0.253906 2.078125 -1.140625 C 1.429688 -2.023438 1.085938 -3.097656 1.046875 -4.359375 L 1.03125 -4.890625 L 1.046875 -5.40625 C 1.085938 -6.675781 1.429688 -7.753906 2.078125 -8.640625 C 2.722656 -9.523438 3.722656 -9.96875 5.078125 -9.96875 C 6.441406 -9.96875 7.492188 -9.472656 8.234375 -8.484375 L 8.234375 -9.34375 C 8.234375 -9.46875 8.269531 -9.570312 8.34375 -9.65625 C 8.414062 -9.738281 8.515625 -9.78125 8.640625 -9.78125 L 8.953125 -9.78125 C 9.078125 -9.78125 9.175781 -9.738281 9.25 -9.65625 C 9.332031 -9.570312 9.375 -9.46875 9.375 -9.34375 L 9.375 -0.1875 C 9.375 1.15625 9.0625 2.210938 8.4375 2.984375 C 7.8125 3.753906 6.722656 4.140625 5.171875 4.140625 Z M 5.1875 -0.90625 C 6.175781 -0.90625 6.921875 -1.234375 7.421875 -1.890625 C 7.921875 -2.546875 8.191406 -3.316406 8.234375 -4.203125 C 8.242188 -4.335938 8.25 -4.566406 8.25 -4.890625 C 8.25 -5.210938 8.242188 -5.4375 8.234375 -5.5625 C 8.191406 -6.457031 7.921875 -7.234375 7.421875 -7.890625 C 6.921875 -8.546875 6.175781 -8.875 5.1875 -8.875 C 4.175781 -8.875 3.429688 -8.550781 2.953125 -7.90625 C 2.484375 -7.257812 2.234375 -6.425781 2.203125 -5.40625 L 2.1875 -4.890625 L 2.203125 -4.359375 C 2.234375 -3.347656 2.484375 -2.519531 2.953125 -1.875 C 3.429688 -1.226562 4.175781 -0.90625 5.1875 -0.90625 Z M 5.1875 -0.90625 "/></g></g></g><g fill="#000000" fill-opacity="1"><g transform="translate(151.597866, 181.921573)"><g/></g></g><g fill="#000000" fill-opacity="1"><g transform="translate(158.589629, 181.921573)"><g><path d="M 5.171875 4.140625 C 4.191406 4.140625 3.40625 3.96875 2.8125 3.625 C 2.226562 3.289062 1.816406 2.90625 1.578125 2.46875 C 1.347656 2.039062 1.234375 1.660156 1.234375 1.328125 C 1.234375 1.222656 1.273438 1.128906 1.359375 1.046875 C 1.441406 0.972656 1.539062 0.9375 1.65625 0.9375 L 1.921875 0.9375 C 2.035156 0.9375 2.125 0.960938 2.1875 1.015625 C 2.257812 1.078125 2.320312 1.179688 2.375 1.328125 C 2.757812 2.472656 3.660156 3.046875 5.078125 3.046875 C 6.148438 3.046875 6.941406 2.820312 7.453125 2.375 C 7.972656 1.925781 8.234375 1.132812 8.234375 0 L 8.234375 -1.296875 C 7.503906 -0.304688 6.453125 0.1875 5.078125 0.1875 C 3.722656 0.1875 2.722656 -0.253906 2.078125 -1.140625 C 1.429688 -2.023438 1.085938 -3.097656 1.046875 -4.359375 L 1.03125 -4.890625 L 1.046875 -5.40625 C 1.085938 -6.675781 1.429688 -7.753906 2.078125 -8.640625 C 2.722656 -9.523438 3.722656 -9.96875 5.078125 -9.96875 C 6.441406 -9.96875 7.492188 -9.472656 8.234375 -8.484375 L 8.234375 -9.34375 C 8.234375 -9.46875 8.269531 -9.570312 8.34375 -9.65625 C 8.414062 -9.738281 8.515625 -9.78125 8.640625 -9.78125 L 8.953125 -9.78125 C 9.078125 -9.78125 9.175781 -9.738281 9.25 -9.65625 C 9.332031 -9.570312 9.375 -9.46875 9.375 -9.34375 L 9.375 -0.1875 C 9.375 1.15625 9.0625 2.210938 8.4375 2.984375 C 7.8125 3.753906 6.722656 4.140625 5.171875 4.140625 Z M 5.1875 -0.90625 C 6.175781 -0.90625 6.921875 -1.234375 7.421875 -1.890625 C 7.921875 -2.546875 8.191406 -3.316406 8.234375 -4.203125 C 8.242188 -4.335938 8.25 -4.566406 8.25 -4.890625 C 8.25 -5.210938 8.242188 -5.4375 8.234375 -5.5625 C 8.191406 -6.457031 7.921875 -7.234375 7.421875 -7.890625 C 6.921875 -8.546875 6.175781 -8.875 5.1875 -8.875 C 4.175781 -8.875 3.429688 -8.550781 2.953125 -7.90625 C 2.484375 -7.257812 2.234375 -6.425781 2.203125 -5.40625 L 2.1875 -4.890625 L 2.203125 -4.359375 C 2.234375 -3.347656 2.484375 -2.519531 2.953125 -1.875 C 3.429688 -1.226562 4.175781 -0.90625 5.1875 -0.90625 Z M 5.1875 -0.90625 "/></g></g></g><g fill="#000000" fill-opacity="1"><g transform="translate(171.652033, 181.921573)"><g><path d="M 1.9375 0 C 1.8125 0 1.707031 -0.0351562 1.625 -0.109375 C 1.550781 -0.179688 1.515625 -0.28125 1.515625 -0.40625 L 1.515625 -9.34375 C 1.515625 -9.46875 1.550781 -9.570312 1.625 -9.65625 C 1.707031 -9.738281 1.8125 -9.78125 1.9375 -9.78125 L 2.234375 -9.78125 C 2.359375 -9.78125 2.460938 -9.738281 2.546875 -9.65625 C 2.628906 -9.570312 2.671875 -9.46875 2.671875 -9.34375 L 2.671875 -8.484375 C 3.117188 -9.347656 3.96875 -9.78125 5.21875 -9.78125 L 5.921875 -9.78125 C 6.046875 -9.78125 6.144531 -9.738281 6.21875 -9.65625 C 6.289062 -9.582031 6.328125 -9.484375 6.328125 -9.359375 L 6.328125 -9.09375 C 6.328125 -8.96875 6.289062 -8.867188 6.21875 -8.796875 C 6.144531 -8.722656 6.046875 -8.6875 5.921875 -8.6875 L 5.109375 -8.6875 C 4.359375 -8.6875 3.765625 -8.46875 3.328125 -8.03125 C 2.890625 -7.59375 2.671875 -6.992188 2.671875 -6.234375 L 2.671875 -0.40625 C 2.671875 -0.28125 2.628906 -0.179688 2.546875 -0.109375 C 2.460938 -0.0351562 2.359375 0 2.234375 0 Z M 1.9375 0 "/></g></g></g><g fill="#000000" fill-opacity="1"><g transform="translate(180.335305, 181.921573)"><g><path d="M 5.25 0.1875 C 3.945312 0.1875 2.929688 -0.207031 2.203125 -1 C 1.484375 -1.800781 1.109375 -2.832031 1.078125 -4.09375 L 1.046875 -4.890625 L 1.078125 -5.671875 C 1.109375 -6.941406 1.484375 -7.972656 2.203125 -8.765625 C 2.929688 -9.566406 3.945312 -9.96875 5.25 -9.96875 C 6.550781 -9.96875 7.5625 -9.566406 8.28125 -8.765625 C 9 -7.972656 9.378906 -6.941406 9.421875 -5.671875 C 9.429688 -5.546875 9.4375 -5.285156 9.4375 -4.890625 C 9.4375 -4.484375 9.429688 -4.21875 9.421875 -4.09375 C 9.378906 -2.832031 9 -1.800781 8.28125 -1 C 7.5625 -0.207031 6.550781 0.1875 5.25 0.1875 Z M 5.25 -0.90625 C 6.132812 -0.90625 6.847656 -1.1875 7.390625 -1.75 C 7.941406 -2.320312 8.234375 -3.132812 8.265625 -4.1875 C 8.285156 -4.3125 8.296875 -4.546875 8.296875 -4.890625 C 8.296875 -5.222656 8.285156 -5.453125 8.265625 -5.578125 C 8.234375 -6.628906 7.941406 -7.441406 7.390625 -8.015625 C 6.847656 -8.585938 6.132812 -8.875 5.25 -8.875 C 4.351562 -8.875 3.632812 -8.585938 3.09375 -8.015625 C 2.550781 -7.441406 2.257812 -6.628906 2.21875 -5.578125 L 2.203125 -4.890625 L 2.21875 -4.1875 C 2.257812 -3.132812 2.550781 -2.320312 3.09375 -1.75 C 3.632812 -1.1875 4.351562 -0.90625 5.25 -0.90625 Z M 5.25 -0.90625 "/></g></g></g><g fill="#000000" fill-opacity="1"><g transform="translate(192.965436, 181.921573)"><g><path d="M 5.1875 0.1875 C 3.957031 0.1875 3.019531 -0.195312 2.375 -0.96875 C 1.738281 -1.75 1.421875 -2.765625 1.421875 -4.015625 L 1.421875 -9.359375 C 1.421875 -9.484375 1.457031 -9.582031 1.53125 -9.65625 C 1.613281 -9.738281 1.71875 -9.78125 1.84375 -9.78125 L 2.15625 -9.78125 C 2.28125 -9.78125 2.378906 -9.738281 2.453125 -9.65625 C 2.535156 -9.582031 2.578125 -9.484375 2.578125 -9.359375 L 2.578125 -4.109375 C 2.578125 -1.972656 3.507812 -0.90625 5.375 -0.90625 C 6.28125 -0.90625 7 -1.1875 7.53125 -1.75 C 8.0625 -2.320312 8.328125 -3.109375 8.328125 -4.109375 L 8.328125 -9.359375 C 8.328125 -9.484375 8.363281 -9.582031 8.4375 -9.65625 C 8.507812 -9.738281 8.609375 -9.78125 8.734375 -9.78125 L 9.0625 -9.78125 C 9.1875 -9.78125 9.285156 -9.738281 9.359375 -9.65625 C 9.429688 -9.582031 9.46875 -9.484375 9.46875 -9.359375 L 9.46875 -0.40625 C 9.46875 -0.28125 9.429688 -0.179688 9.359375 -0.109375 C 9.285156 -0.0351562 9.1875 0 9.0625 0 L 8.734375 0 C 8.609375 0 8.507812 -0.0351562 8.4375 -0.109375 C 8.363281 -0.179688 8.328125 -0.28125 8.328125 -0.40625 L 8.328125 -1.296875 C 7.953125 -0.804688 7.519531 -0.4375 7.03125 -0.1875 C 6.550781 0.0625 5.9375 0.1875 5.1875 0.1875 Z M 5.1875 0.1875 "/></g></g></g><g fill="#000000" fill-opacity="1"><g transform="translate(206.103018, 181.921573)"><g><path d="M 1.953125 3.578125 C 1.828125 3.578125 1.726562 3.535156 1.65625 3.453125 C 1.582031 3.378906 1.546875 3.28125 1.546875 3.15625 L 1.546875 -9.359375 C 1.546875 -9.484375 1.582031 -9.582031 1.65625 -9.65625 C 1.726562 -9.738281 1.828125 -9.78125 1.953125 -9.78125 L 2.28125 -9.78125 C 2.40625 -9.78125 2.503906 -9.738281 2.578125 -9.65625 C 2.648438 -9.582031 2.6875 -9.484375 2.6875 -9.359375 L 2.6875 -8.484375 C 3.414062 -9.472656 4.46875 -9.96875 5.84375 -9.96875 C 7.195312 -9.96875 8.195312 -9.535156 8.84375 -8.671875 C 9.488281 -7.816406 9.832031 -6.757812 9.875 -5.5 C 9.882812 -5.375 9.890625 -5.171875 9.890625 -4.890625 C 9.890625 -4.597656 9.882812 -4.390625 9.875 -4.265625 C 9.832031 -3.015625 9.488281 -1.957031 8.84375 -1.09375 C 8.195312 -0.238281 7.195312 0.1875 5.84375 0.1875 C 4.476562 0.1875 3.425781 -0.304688 2.6875 -1.296875 L 2.6875 3.15625 C 2.6875 3.28125 2.648438 3.378906 2.578125 3.453125 C 2.503906 3.535156 2.40625 3.578125 2.28125 3.578125 Z M 5.734375 -0.90625 C 6.742188 -0.90625 7.484375 -1.226562 7.953125 -1.875 C 8.429688 -2.519531 8.6875 -3.347656 8.71875 -4.359375 C 8.726562 -4.484375 8.734375 -4.660156 8.734375 -4.890625 C 8.734375 -6.054688 8.507812 -7.007812 8.0625 -7.75 C 7.613281 -8.5 6.835938 -8.875 5.734375 -8.875 C 4.742188 -8.875 4 -8.546875 3.5 -7.890625 C 3 -7.234375 2.726562 -6.457031 2.6875 -5.5625 L 2.671875 -4.828125 L 2.6875 -4.09375 C 2.695312 -3.5625 2.816406 -3.050781 3.046875 -2.5625 C 3.273438 -2.082031 3.613281 -1.6875 4.0625 -1.375 C 4.507812 -1.0625 5.066406 -0.90625 5.734375 -0.90625 Z M 5.734375 -0.90625 "/></g></g></g></svg>